<svg width="36" height="36" viewBox="0 0 36 36" fill="none" xmlns="http://www.w3.org/2000/svg">
<path d="M26.9999 32.3333H3.66659V8.99996H18.6666V5.66663H3.66659C1.83325 5.66663 0.333252 7.16663 0.333252 8.99996V32.3333C0.333252 34.1666 1.83325 35.6666 3.66659 35.6666H26.9999C28.8333 35.6666 30.3333 34.1666 30.3333 32.3333V17.3333H26.9999V32.3333ZM14.0166 27.05L10.7499 23.1166L6.16658 29H24.4999L18.5999 21.15L14.0166 27.05ZM30.3333 5.66663V0.666626H26.9999V5.66663H21.9999C22.0166 5.68329 21.9999 8.99996 21.9999 8.99996H26.9999V13.9833C27.0166 14 30.3333 13.9833 30.3333 13.9833V8.99996H35.3333V5.66663H30.3333Z" fill="#F1F1F1"/>
</svg>
