<svg width="35" height="35" viewBox="0 0 35 35" fill="none" xmlns="http://www.w3.org/2000/svg">
<path d="M24.675 7.04377L33.9719 16.3406C34.2791 16.6483 34.4517 17.0653 34.4517 17.5C34.4517 17.9348 34.2791 18.3518 33.9719 18.6594L24.675 27.9563C24.4745 28.1722 24.2194 28.3301 23.9367 28.4133C23.654 28.4964 23.354 28.5018 23.0685 28.4288C22.783 28.3558 22.5224 28.2071 22.3143 27.9984C22.1062 27.7898 21.9582 27.5289 21.886 27.2431C21.8129 26.9579 21.818 26.6583 21.9007 26.3758C21.9835 26.0932 22.1408 25.8382 22.3563 25.6375L30.4938 17.5L22.3563 9.36252C22.1403 9.16199 21.9824 8.90692 21.8993 8.62419C21.8161 8.34146 21.8108 8.04153 21.8838 7.75601C21.9568 7.47049 22.1054 7.20994 22.3141 7.00183C22.5228 6.79371 22.7837 6.64572 23.0694 6.57346C23.3546 6.50036 23.6542 6.50546 23.9368 6.58822C24.2193 6.67098 24.4743 6.82835 24.675 7.04377ZM10.325 7.04377C10.6362 6.75413 11.0476 6.5964 11.4727 6.60374C11.8977 6.61109 12.3034 6.78293 12.6044 7.08315C12.9046 7.38415 13.0765 7.78982 13.0838 8.21489C13.0911 8.63996 12.9334 9.05133 12.6438 9.36252L4.50627 17.5L12.6438 25.6375C12.8597 25.8381 13.0176 26.0931 13.1008 26.3759C13.1839 26.6586 13.1893 26.9585 13.1163 27.244C13.0433 27.5296 12.8946 27.7901 12.6859 27.9982C12.4773 28.2063 12.2164 28.3543 11.9306 28.4266C11.6454 28.4997 11.3458 28.4946 11.0633 28.4118C10.7807 28.3291 10.5257 28.1717 10.325 27.9563L1.02815 18.6594C0.720911 18.3518 0.54834 17.9348 0.54834 17.5C0.54834 17.0653 0.720911 16.6483 1.02815 16.3406L10.325 7.04377Z" fill="white"/>
</svg>
