<svg width="28" height="28" viewBox="0 0 28 28" fill="none" xmlns="http://www.w3.org/2000/svg">
<path d="M14 0.933393L14.6067 0.224061C14.4376 0.0794605 14.2225 0 14 0C13.7775 0 13.5624 0.0794605 13.3933 0.224061L14 0.933393ZM0.933333 12.1334L0.326667 11.424L0 11.704V12.1334H0.933333ZM10.2667 27.0667V28C10.5142 28 10.7516 27.9017 10.9266 27.7266C11.1017 27.5516 11.2 27.3142 11.2 27.0667H10.2667ZM17.7333 27.0667H16.8C16.8 27.3142 16.8983 27.5516 17.0734 27.7266C17.2484 27.9017 17.4858 28 17.7333 28V27.0667ZM27.0667 12.1334H28V11.704L27.6733 11.424L27.0667 12.1334ZM2.8 28H10.2667V26.1333H2.8V28ZM27.6733 11.424L14.6067 0.224061L13.3933 1.64272L26.46 12.8427L27.6733 11.424ZM13.3933 0.224061L0.326667 11.424L1.54 12.8427L14.6067 1.64272L13.3933 0.224061ZM11.2 27.0667V21.4667H9.33333V27.0667H11.2ZM16.8 21.4667V27.0667H18.6667V21.4667H16.8ZM17.7333 28H25.2V26.1333H17.7333V28ZM28 25.2V12.1334H26.1333V25.2H28ZM0 12.1334V25.2H1.86667V12.1334H0ZM14 18.6667C14.7426 18.6667 15.4548 18.9617 15.9799 19.4868C16.505 20.0119 16.8 20.7241 16.8 21.4667H18.6667C18.6667 20.229 18.175 19.042 17.2998 18.1669C16.4247 17.2917 15.2377 16.8 14 16.8V18.6667ZM14 16.8C12.7623 16.8 11.5753 17.2917 10.7002 18.1669C9.825 19.042 9.33333 20.229 9.33333 21.4667H11.2C11.2 20.7241 11.495 20.0119 12.0201 19.4868C12.5452 18.9617 13.2574 18.6667 14 18.6667V16.8ZM25.2 28C25.9426 28 26.6548 27.705 27.1799 27.1799C27.705 26.6548 28 25.9426 28 25.2H26.1333C26.1333 25.4475 26.035 25.6849 25.86 25.86C25.6849 26.035 25.4475 26.1333 25.2 26.1333V28ZM2.8 26.1333C2.55246 26.1333 2.31507 26.035 2.14003 25.86C1.965 25.6849 1.86667 25.4475 1.86667 25.2H0C0 25.9426 0.294999 26.6548 0.820101 27.1799C1.3452 27.705 2.05739 28 2.8 28V26.1333Z" fill="black"/>
</svg>
