<svg width="40" height="40" viewBox="0 0 40 40" fill="none" xmlns="http://www.w3.org/2000/svg">
<path d="M35.3451 18.8216L30.3451 13.8216C30.1902 13.6669 30.0064 13.5442 29.8041 13.4605C29.6019 13.3768 29.3851 13.3337 29.1662 13.3338C28.9472 13.3339 28.7305 13.3771 28.5283 13.4609C28.326 13.5448 28.1423 13.6676 27.9876 13.8225C27.8328 13.9773 27.7101 14.1611 27.6264 14.3634C27.5427 14.5657 27.4997 14.7825 27.4997 15.0014C27.4998 15.2203 27.543 15.4371 27.6269 15.6393C27.7107 15.8415 27.8336 16.0252 27.9884 16.18L30.1434 18.3333H20.8334C20.3914 18.3333 19.9675 18.5089 19.6549 18.8215C19.3423 19.134 19.1667 19.5579 19.1667 20C19.1667 20.442 19.3423 20.8659 19.6549 21.1785C19.9675 21.491 20.3914 21.6666 20.8334 21.6666H30.1434L27.9884 23.8216C27.8292 23.9754 27.7023 24.1593 27.6149 24.3626C27.5276 24.566 27.4816 24.7847 27.4797 25.006C27.4777 25.2273 27.5199 25.4467 27.6037 25.6516C27.6875 25.8564 27.8113 26.0425 27.9678 26.199C28.1242 26.3555 28.3103 26.4792 28.5152 26.563C28.72 26.6468 28.9395 26.689 29.1607 26.6871C29.382 26.6851 29.6007 26.6392 29.8041 26.5518C30.0074 26.4645 30.1913 26.3375 30.3451 26.1783L35.3451 21.1783C35.5 21.0235 35.623 20.8397 35.7068 20.6374C35.7907 20.435 35.8339 20.2182 35.8339 19.9991C35.8339 19.7801 35.7907 19.5632 35.7068 19.3609C35.623 19.1586 35.5 18.9748 35.3451 18.82V18.8216Z" fill="white"/>
<path opacity="0.5" d="M20.8334 21.6666C20.3914 21.6666 19.9675 21.4911 19.6549 21.1785C19.3423 20.8659 19.1667 20.442 19.1667 20C19.1667 19.558 19.3423 19.134 19.6549 18.8215C19.9675 18.5089 20.3914 18.3333 20.8334 18.3333H27.5001V8.33331C27.4988 7.00764 26.9715 5.73664 26.0342 4.79924C25.0968 3.86185 23.8258 3.33464 22.5001 3.33331H9.16675C7.84107 3.33464 6.57007 3.86185 5.63268 4.79924C4.69528 5.73664 4.16807 7.00764 4.16675 8.33331V31.6666C4.16807 32.9923 4.69528 34.2633 5.63268 35.2007C6.57007 36.1381 7.84107 36.6653 9.16675 36.6666H22.5001C23.8258 36.6653 25.0968 36.1381 26.0342 35.2007C26.9715 34.2633 27.4988 32.9923 27.5001 31.6666V21.6666H20.8334Z" fill="white"/>
</svg>
