<svg width="28" height="28" viewBox="0 0 28 28" fill="none" xmlns="http://www.w3.org/2000/svg">
<path d="M14 0C15.8565 0 17.637 0.737498 18.9497 2.05025C20.2625 3.36301 21 5.14348 21 7C21 8.85652 20.2625 10.637 18.9497 11.9497C17.637 13.2625 15.8565 14 14 14C12.1435 14 10.363 13.2625 9.05025 11.9497C7.7375 10.637 7 8.85652 7 7C7 5.14348 7.7375 3.36301 9.05025 2.05025C10.363 0.737498 12.1435 0 14 0ZM14 3.5C13.0717 3.5 12.1815 3.86875 11.5251 4.52513C10.8687 5.1815 10.5 6.07174 10.5 7C10.5 7.92826 10.8687 8.8185 11.5251 9.47487C12.1815 10.1313 13.0717 10.5 14 10.5C14.9283 10.5 15.8185 10.1313 16.4749 9.47487C17.1313 8.8185 17.5 7.92826 17.5 7C17.5 6.07174 17.1313 5.1815 16.4749 4.52513C15.8185 3.86875 14.9283 3.5 14 3.5ZM14 15.75C18.6725 15.75 28 18.0775 28 22.75V28H0V22.75C0 18.0775 9.3275 15.75 14 15.75ZM14 19.075C8.8025 19.075 3.325 21.63 3.325 22.75V24.675H24.675V22.75C24.675 21.63 19.1975 19.075 14 19.075Z" fill="black"/>
</svg>
