<svg width="28" height="28" viewBox="0 0 28 28" fill="none" xmlns="http://www.w3.org/2000/svg">
<path d="M14 0C15.8565 0 17.637 0.737498 18.9497 2.05025C20.2625 3.36301 21 5.14348 21 7C21 8.85652 20.2625 10.637 18.9497 11.9497C17.637 13.2625 15.8565 14 14 14C12.1435 14 10.363 13.2625 9.05025 11.9497C7.7375 10.637 7 8.85652 7 7C7 5.14348 7.7375 3.36301 9.05025 2.05025C10.363 0.737498 12.1435 0 14 0ZM14 17.5C21.735 17.5 28 20.6325 28 24.5V28H0V24.5C0 20.6325 6.265 17.5 14 17.5Z" fill="#FE9C80"/>
</svg>
